<svg width="172" height="150" viewBox="0 0 172 150" fill="none" xmlns="http://www.w3.org/2000/svg">
<g clip-path="url(#clip0_1006_3785)">
<path d="M129.896 45.6716C126.76 43.8806 122.729 43.8806 119.146 45.6716L94.0625 60.4478L77.0417 69.8508L52.4062 84.6269C49.2708 86.4179 45.2396 86.4179 41.6562 84.6269L22.3958 72.9851C19.2604 71.194 17.0208 67.6119 17.0208 63.5821V41.194C17.0208 37.6119 18.8125 34.0299 22.3958 31.791L41.6562 20.597C44.7917 18.806 48.8229 18.806 52.4062 20.597L71.6667 32.2388C74.8021 34.0299 77.0417 37.6119 77.0417 41.6418V56.4179L94.0625 46.5672V31.3433C94.0625 27.7612 92.2708 24.1791 88.6875 21.9403L52.8542 0.89553C49.7188 -0.895515 45.6875 -0.895515 42.1042 0.89553L5.375 22.3881C1.79167 24.1791 0 27.7612 0 31.3433V73.4328C0 77.0149 1.79167 80.597 5.375 82.8358L41.6562 103.881C44.7917 105.672 48.8229 105.672 52.4062 103.881L77.0417 89.5522L94.0625 79.7015L118.698 65.3731C121.833 63.5821 125.865 63.5821 129.448 65.3731L148.708 76.5672C151.844 78.3582 154.083 81.9403 154.083 85.9702V108.358C154.083 111.94 152.292 115.522 148.708 117.761L129.896 128.955C126.76 130.746 122.729 130.746 119.146 128.955L99.8854 117.761C96.75 115.97 94.5104 112.388 94.5104 108.358V94.0299L77.4896 103.881V118.657C77.4896 122.239 79.2812 125.821 82.8646 128.06L119.146 149.104C122.281 150.896 126.312 150.896 129.896 149.104L166.177 128.06C169.312 126.269 171.552 122.687 171.552 118.657V76.1194C171.552 72.5373 169.76 68.9552 166.177 66.7164L129.896 45.6716Z" fill="#8247E5"/>
</g>
<defs>
<clipPath id="clip0_1006_3785">
<rect width="172" height="150" fill="white"/>
</clipPath>
</defs>
</svg>
