<svg width="21" height="21" viewBox="0 0 21 21" fill="none" xmlns="http://www.w3.org/2000/svg">
<path d="M17.5343 3.28275L13.6542 3.76469C13.5188 3.78109 13.4635 3.94515 13.5578 4.04154L14.6796 5.16332L11.5316 8.31127C11.5011 8.3421 11.484 8.38374 11.484 8.42714C11.484 8.47053 11.5011 8.51217 11.5316 8.54301L12.4565 9.46791C12.5201 9.53148 12.6247 9.53148 12.6883 9.46791L15.8383 6.31791L16.96 7.43969C16.9817 7.46132 17.009 7.47641 17.0388 7.48324C17.0686 7.49007 17.0998 7.48836 17.1287 7.4783C17.1576 7.46823 17.1831 7.45023 17.2022 7.42636C17.2213 7.40248 17.2334 7.37369 17.2369 7.3433L17.7168 3.46527C17.7202 3.44051 17.7178 3.41529 17.7098 3.3916C17.7018 3.3679 17.6885 3.34638 17.6708 3.3287C17.6531 3.31103 17.6316 3.29768 17.6079 3.28971C17.5842 3.28174 17.559 3.27936 17.5343 3.28275V3.28275ZM8.54363 11.531C8.5128 11.5005 8.47116 11.4833 8.42776 11.4833C8.38437 11.4833 8.34273 11.5005 8.31189 11.531L5.16394 14.681L4.04217 13.5592C4.02052 13.5376 3.99322 13.5225 3.96339 13.5157C3.93356 13.5088 3.90242 13.5105 3.87352 13.5206C3.84462 13.5307 3.81914 13.5487 3.8 13.5725C3.78086 13.5964 3.76884 13.6252 3.76531 13.6556L3.28338 17.5336C3.27107 17.6403 3.35925 17.7285 3.4659 17.7162L7.34597 17.2342C7.48133 17.2178 7.5367 17.0537 7.44236 16.9574L6.32058 15.8356L9.47058 12.6856C9.53416 12.622 9.53416 12.5174 9.47058 12.4538L8.54363 11.531V11.531Z" fill="#FF7A45"/>
<path d="M17.4345 17.252L16.9526 13.372C16.9362 13.2366 16.7721 13.1812 16.6757 13.2756L15.554 14.3973L12.406 11.2494C12.3752 11.2189 12.3335 11.2017 12.2901 11.2017C12.2468 11.2017 12.2051 11.2189 12.1743 11.2494L11.2494 12.1743C11.1858 12.2379 11.1858 12.3425 11.2494 12.406L14.3994 15.556L13.2776 16.6778C13.256 16.6995 13.2409 16.7268 13.234 16.7566C13.2272 16.7864 13.2289 16.8176 13.239 16.8465C13.249 16.8754 13.2671 16.9008 13.2909 16.92C13.3148 16.9391 13.3436 16.9511 13.374 16.9547L17.252 17.4345C17.2768 17.4379 17.302 17.4356 17.3257 17.4276C17.3494 17.4196 17.3709 17.4063 17.3886 17.3886C17.4063 17.3709 17.4196 17.3494 17.4276 17.3257C17.4355 17.302 17.4379 17.2768 17.4345 17.252V17.252ZM9.18629 8.2614C9.21682 8.23057 9.23395 8.18893 9.23395 8.14553C9.23395 8.10214 9.21682 8.0605 9.18629 8.02967L6.03629 4.88172L7.15807 3.75994C7.1797 3.7383 7.1948 3.71099 7.20162 3.68117C7.20845 3.65134 7.20674 3.62019 7.19668 3.59129C7.18662 3.56239 7.16862 3.53691 7.14474 3.51777C7.12086 3.49864 7.09208 3.48661 7.06168 3.48308L3.18365 3.00115C3.07701 2.98884 2.98883 3.07703 3.00113 3.18367L3.48307 7.06375C3.49947 7.1991 3.66354 7.25447 3.75992 7.16013L4.8817 6.03836L8.0317 9.18836C8.09528 9.25193 8.19987 9.25193 8.26344 9.18836L9.18629 8.2614V8.2614Z" fill="#FF7A45"/>
</svg>
